<svg xmlns="http://www.w3.org/2000/svg" width="1080" height="1080" viewBox="0 0 1080 1080" version="1.1">
  <defs>
    <linearGradient id="logoGradient" x1="0%" y1="0%" x2="100%" y2="100%">
      <stop offset="0%" stop-color="#a695ff"/>
      <stop offset="100%" stop-color="#f472b6"/>
    </linearGradient>
  </defs>
  <path d="M 360.299 235.431 C 348.665 238.251, 332.714 249.036, 324.914 259.355 C 322.925 261.987, 316.079 274.571, 309.701 287.320 C 303.322 300.069, 293.587 318.825, 288.067 329 C 282.547 339.175, 278.023 348.063, 278.015 348.750 C 278.003 349.738, 292.559 350, 347.500 350 C 385.725 350, 417 350.113, 417 350.250 C 416.999 351.082, 405.232 383.157, 392.328 417.500 C 389.848 424.100, 385.637 435.575, 382.970 443 C 380.303 450.425, 376.045 462.125, 373.508 469 C 370.970 475.875, 367.833 484.425, 366.537 488 C 365.241 491.575, 362.749 498.325, 361 503 C 359.251 507.675, 356.766 514.425, 355.479 518 C 354.191 521.575, 349.698 533.725, 345.495 545 C 341.291 556.275, 335.892 570.900, 333.496 577.500 C 320.075 614.468, 317.805 619.325, 310.573 626.557 C 299.715 637.415, 295.309 638.227, 249.500 637.810 L 215.500 637.500 208 640.366 C 199.448 643.634, 188.731 650.555, 184.895 655.287 C 183.463 657.054, 174.409 674.025, 164.777 693 C 155.144 711.975, 144.029 733.299, 140.077 740.388 C 136.125 747.476, 133.134 753.906, 133.430 754.678 C 133.887 755.870, 147.477 756.026, 224.234 755.719 C 303.585 755.402, 315.286 755.161, 321 753.726 C 344.773 747.759, 367.847 735.429, 384.639 719.721 C 396.683 708.454, 411.321 687.126, 420.962 666.795 C 426.210 655.728, 438.380 623.682, 454.495 578.500 C 457.438 570.250, 461.708 558.550, 463.986 552.500 C 469.750 537.188, 479.086 511.544, 486.012 492 C 494.750 467.345, 508.336 431.408, 511.824 423.722 C 513.516 419.994, 514.473 417.208, 513.950 417.531 C 513.428 417.854, 513.001 417.754, 513.002 417.309 C 513.005 416.494, 539.280 341.954, 551.357 308.500 C 572.288 250.523, 578 234.619, 578 234.327 C 578 234.147, 530.188 234.038, 471.750 234.085 C 389.927 234.151, 364.304 234.460, 360.299 235.431" stroke="none" fill="#fbfbfb" fill-rule="evenodd"/>
  <path d="M 574.194 245.250 C 569.949 256.960, 559.190 286.804, 544.722 327 C 526.159 378.575, 512.816 417.150, 513.353 417.687 C 513.665 417.998, 515.175 416.126, 516.710 413.527 C 523.634 401.799, 533.323 388.032, 538.246 382.926 C 552.561 368.078, 574.381 356.428, 597 351.556 C 603.145 350.232, 609.812 349.991, 633.907 350.220 L 663.315 350.500 654.907 355.644 C 638.366 365.766, 630.959 374.853, 623.642 394 C 621.225 400.325, 614.859 416.750, 609.495 430.500 C 599.154 457.008, 596.614 463.590, 573.607 523.500 C 565.581 544.400, 558.140 563.750, 557.071 566.500 C 554.852 572.208, 544.595 599.052, 537.011 619 C 534.188 626.425, 529.225 639.475, 525.982 648 C 522.739 656.525, 517.188 671.150, 513.646 680.500 C 510.105 689.850, 503.066 708.300, 498.005 721.500 C 478.643 771.999, 475.835 780, 477.480 780 C 477.744 780, 479.656 779.348, 481.730 778.550 C 483.803 777.753, 491.085 775.038, 497.910 772.516 C 558.894 749.988, 615.926 716.756, 648.103 685 C 663.303 669.999, 668.113 662.539, 674.909 643.427 C 677.828 635.217, 683.099 620.625, 686.621 611 C 690.144 601.375, 696.211 584.725, 700.104 574 C 703.997 563.275, 707.798 552.925, 708.551 551 C 709.303 549.075, 714.920 534, 721.033 517.500 C 732.522 486.484, 735.931 477.385, 747.818 446 C 751.672 435.825, 759.874 414.013, 766.044 397.530 C 772.214 381.046, 778.384 365.866, 779.754 363.796 C 783.162 358.646, 791.188 353.590, 799.064 351.632 C 804.574 350.262, 811.960 349.999, 845.064 349.992 C 880.967 349.985, 885.061 349.814, 890.762 348.080 C 903.625 344.169, 910.411 338.438, 917.366 325.615 C 919.786 321.152, 923.224 314.800, 925.005 311.500 C 926.786 308.200, 930.163 302.125, 932.509 298 C 939.506 285.697, 967 235.105, 967 234.531 C 967 234.239, 879.536 234, 772.636 234 L 578.272 234 574.194 245.250 M 944.364 368.330 C 936.588 375.620, 926.032 385.390, 920.904 390.042 C 915.776 394.694, 908.398 401.425, 904.507 405 C 900.616 408.575, 892.404 415.960, 886.257 421.410 C 880.110 426.861, 875.298 431.674, 875.565 432.105 C 875.832 432.536, 878.176 432.235, 880.775 431.434 C 883.374 430.634, 888.875 429.090, 893 428.003 C 897.125 426.916, 903.313 425.162, 906.750 424.105 C 910.188 423.048, 913 422.361, 913 422.578 C 913 422.795, 910.265 429.391, 906.923 437.236 C 896.367 462.011, 878.139 497.248, 866.179 516 C 835.851 563.550, 812.116 592.971, 770.545 634.547 C 742.563 662.531, 716.169 685.322, 686 707.549 C 675.278 715.449, 676.392 714.676, 657.500 727.332 C 611.524 758.131, 555.448 786.733, 506 804.607 C 499.125 807.092, 490.575 810.181, 487 811.473 C 456.503 822.492, 404.925 835.055, 370 839.973 C 335.030 844.897, 319.156 845.980, 281.750 845.991 C 265.241 845.996, 253 846.386, 253 846.906 C 253 847.405, 255.362 848.121, 258.250 848.498 C 261.137 848.875, 271.375 850.283, 281 851.626 C 304.325 854.882, 322.263 855.956, 353.500 855.971 C 396.660 855.990, 422.478 853.279, 464 844.367 C 501.005 836.424, 546.873 821.592, 579.500 807.017 C 583.350 805.298, 589.200 802.686, 592.500 801.213 C 607.504 794.517, 635.484 779.720, 653 769.218 C 719.012 729.640, 775.466 680.205, 825.022 618.584 C 848.154 589.820, 871.619 554.903, 887.913 525 C 898.693 505.217, 915.793 468.753, 926.022 443.739 C 927.317 440.570, 928.683 438.320, 929.056 438.739 C 929.429 439.157, 931.148 446.891, 932.875 455.925 C 935.912 471.804, 936.470 473.864, 937.465 472.868 C 937.721 472.613, 939.314 465.225, 941.007 456.452 C 942.699 447.678, 944.935 436.450, 945.976 431.500 C 948.217 420.842, 953.814 392.138, 957.480 372.500 C 958.917 364.800, 960.327 357.712, 960.614 356.750 C 961.764 352.885, 957.905 355.635, 944.364 368.330" stroke="none" fill="url(#logoGradient)" fill-rule="evenodd"/>
</svg>
